# xmcd CD database file
#
# Track frame offsets:
#	150
#	11717
#	24989
#	35571
#	46459
#	61321
#	85984
#	108296
#	121410
#	141323
#	157265
#	180873
#
# Disc length: 2657 seconds
#
# Revision: 0
# Processed by: cddbd v1.5.1PL2 Copyright (c) Steve Scherf et al.
# Submitted via: CDex 1.51
#
DISCID=9c0a5f0c
DTITLE=Rufus Thomas - Stax Profiles
DYEAR=2006
DGENRE=Jazz
TTITLE0=Walking the dog (alternate)
TTITLE1=Ride your pony
TTITLE2=Jump back (alternate)
TTITLE3=Strolling beale no1
TTITLE4=Do the funky chicken
TTITLE5=Funky hot grits
TTITLE6=Memphis train 75
TTITLE7=Bear cat (aka Hound dog)
TTITLE8=Funky robot
TTITLE9=Sixty minute man
TTITLE10=Do the double bump
TTITLE11=The breakdown (live)
EXTD=YEAR: 2006
EXTT0=
EXTT1=
EXTT2=
EXTT3=
EXTT4=
EXTT5=
EXTT6=
EXTT7=
EXTT8=
EXTT9=
EXTT10=
EXTT11=
PLAYORDER=
